<?xml version="1.0" encoding="utf-8"?>
<!-- Generator: Adobe Illustrator 27.1.1, SVG Export Plug-In . SVG Version: 6.00 Build 0)  -->
<svg version="1.1" id="레이어_1" xmlns="http://www.w3.org/2000/svg" xmlns:xlink="http://www.w3.org/1999/xlink" x="0px"
	 y="0px" viewBox="0 0 59.36 57.59" style="enable-background:new 0 0 59.36 57.59;" xml:space="preserve">
<style type="text/css">
	.st0{fill:#83A666;}
</style>
<g>
	<path class="st0" d="M53.72,31.71c-1.39-0.62-2.71-1.59-4.12-1.72c-1.43-0.13-2.92,0.59-4.35,0.92c0.4-1.3,1.21-2.02,2.72-2.31
		c2.47-0.46,3.61-1.82,3.64-3.87c0.01-0.62-0.09-1.24-0.15-2.09c-2.7,0.31-4.29,1.95-5.15,4c-0.68-1.31-1.45-2.78-2.3-4.41
		c-1.85,2.79-1.91,5.25,0.53,7.53c-2.36,2.24-4.7,4.21-8.18,4.77c0.17-0.63,0.25-1.02,0.37-1.4c1.88-5.55,2.24-11.2,1.15-16.94
		c-0.2-1.04-0.05-1.44,0.94-1.89c1.06-0.48,2.39-1.17,2.79-2.12c0.61-1.39,0.5-3.09,0.7-4.66c-0.13-0.04-0.26-0.09-0.38-0.13
		c-1.69,1.65-3.38,3.31-4.98,4.88c0.4-1.74-0.37-3.26-1.83-4.54c-0.47-0.4-0.76-1-1.19-1.45c-0.36-0.37-0.81-0.67-1.3-1.05
		c-0.4,1.35-0.87,2.37-0.99,3.42c-0.1,0.86-0.06,1.97,0.41,2.61c0.68,0.93,1.72,1.69,2.75,2.25c1.28,0.69,1.82,1.72,1.27,3.11
		c-2.72-3.09-3.07-2.71-7.79-2.63c1.29,1.59,1.89,3.58,3.95,4.36c1.56,0.59,2.94,0.22,4.33-0.86c0,1.66,0,3.13,0,4.87
		c-1.41-2.07-3.25-2.5-5.4-2.26c0.73,2.57,2.48,3.83,5.14,3.66c0.19,3.03-1.25,5.44-2.79,8.03c-0.68-4.37-2.06-5.97-5.24-6.26
		c-0.44,3.6-0.1,6.8,4.83,7.33c-2.36,3.21-4.52,6.14-6.68,9.07c-4.01-1.3-9.04-8.42-9.37-12.85c3.59-0.29,5.36-1.98,5.3-5.09
		c-2.71,0.22-5.12,0.84-5.85,4.05c0.01-0.64,0.22-1.16,0.28-1.71c0.11-0.85,0.31-1.76,0.12-2.55c-0.24-0.99-0.81-1.93-1.33-2.83
		c-0.12-0.21-0.73-0.38-0.93-0.26c-1.54,0.94-1.91,4.36-0.69,5.82c0.99,1.18,1.5,2.67,1.47,4.34c-1.15-2.96-3.43-3.65-6.49-3.43
		c0.18,0.31,0.36,0.59,0.51,0.87c1.17,2.45,2.79,4.2,5.84,3.81c0.19-0.02,0.54,0.16,0.6,0.32c0.54,1.46,1.02,2.94,1.59,4.64
		c-3.18-1.81-5.83-1.25-8.51,1.34c1.6,0.57,3,1.24,4.46,1.53c1.88,0.35,3.38-0.6,4.53-2.21c1.7,2.99,3.68,5.46,6.24,7.47
		c0.21,0.16,0.22,0.73,0.17,1.08c-0.2,1.37-0.49,2.72-0.72,4.08c-0.19,1.08,0.22,1.5,1.37,1.48c2.96-0.06,5.91-0.02,8.87-0.03
		c0.39,0,0.8-0.08,1.3-0.14c-0.14-0.51-0.22-0.87-0.33-1.21c-0.84-2.58-1.39-5.22-1.18-7.93c0.16-2.14,0.64-3.9,3.04-4.99
		c2.48-1.13,4.71-2.92,6.81-4.71c1-0.86,1.71-1.03,2.72-0.41C48.88,33.96,51.32,33.34,53.72,31.71z M34.04,50.01
		c-1.86,0.32-3.47-0.91-3.68-2.78c-0.18-1.6,0.78-3.5,2.59-3.31C29.66,46.19,31.12,49.28,34.04,50.01z"/>
	<path class="st0" d="M23.13,29.8c-0.39,0.18-0.69,0.26-0.92,0.43c-0.76,0.54-1.47,1.12-2.24,1.65c-0.74,0.51-0.74,1.05-0.22,1.69
		c1.62,1.98,3.23,3.98,4.9,5.91c0.18,0.21,0.77,0.27,1.07,0.15c0.54-0.22,1.04-0.58,1.45-0.98c0.2-0.19,0.32-0.71,0.21-0.95
		c-1.15-2.38-2.36-4.74-3.57-7.08C23.65,30.32,23.37,30.08,23.13,29.8z"/>
	<path class="st0" d="M42.29,15.07c2.38,0.6,4.31,0.23,5.43-2.28c0.31-0.71,0.67-1.41,1.11-2.35c-1.4,0.23-2.74,0.45-4.08,0.68
		c-1.72,0.3-2.53,1.54-2.97,3.07C41.72,14.42,42.05,15.01,42.29,15.07z"/>
	<path class="st0" d="M47.12,35.68c1.33,3.08,2.84,3.83,6.02,3.05c-0.52-0.79-1.03-1.61-1.58-2.41
		C50.54,34.8,48.53,34.51,47.12,35.68z"/>
	<path class="st0" d="M12.74,32.85c-3.49-1.38-3.49-1.38-7.02,0.05C8.93,35.2,11.08,35.16,12.74,32.85z"/>
	<path class="st0" d="M44.05,21.78c0.88-0.17,1.79-0.44,2.57-0.88c0.36-0.2,0.67-0.95,0.59-1.37c-0.09-0.4-0.69-0.72-1.1-1.02
		c-0.21-0.15-0.5-0.21-0.75-0.3c-0.54-0.19-1.18-0.67-1.57-0.5c-0.5,0.21-0.77,0.93-1.06,1.33c0.2,0.81,0.26,1.37,0.49,1.84
		C43.38,21.25,43.83,21.83,44.05,21.78z"/>
	<path class="st0" d="M13.84,44.54c2.25,1.23,4.56,0.51,6.17-2.01C17.81,41.03,15.1,42.19,13.84,44.54z"/>
	<path class="st0" d="M27.47,15.85c-1.8-2.17-2.7-2.35-6.08-1.18C22.8,17.21,25.18,17.64,27.47,15.85z"/>
	<path class="st0" d="M34.47,44.2c3.36,1.56,4.04,0.6,5.56-2.14C37.5,41.14,35.4,41.95,34.47,44.2z"/>
	<path class="st0" d="M21.83,22.53c0.57-0.2,1.1-1.48,1.01-2.08c-0.1-0.72-0.84-1.62-1.01-1.57c-1,0.29-1.98,0.74-2.83,1.33
		c-0.19,0.13,0,1.37,0.34,1.59C20.08,22.24,21.15,22.76,21.83,22.53z"/>
	<path class="st0" d="M47.88,23.41c2.51-1.51,3.12-2.81,2.57-5.51C48.16,18.64,47.22,20.65,47.88,23.41z"/>
	<path class="st0" d="M39.47,26.92c-0.34,2.69,1.03,4.31,3.33,3.93C42.66,28.06,42.05,27.34,39.47,26.92z"/>
	<path class="st0" d="M41.31,16.75c-0.29,0.04-0.64,0.07-0.84,0.24c-0.6,0.54-1.17,1.11-1.66,1.75c-0.09,0.12,0.19,0.76,0.44,0.86
		c1.28,0.51,2.55,0.02,3.24-1.19c0.32-0.57,0.57-1.18,0.88-1.85C42.63,16.62,41.97,16.66,41.31,16.75z"/>
	<path class="st0" d="M28.97,36.2c0.24,0.06,0.75-0.16,0.84-0.37c0.52-1.24-0.04-2.68-1.24-3.34c-0.54-0.29-1.11-0.54-1.89-0.91
		c0.15,1.02,0.24,1.85,0.4,2.66C27.29,35.27,27.95,35.95,28.97,36.2z"/>
	<path class="st0" d="M44.4,33.58l-0.56,1.1l-0.08-0.04c-0.53-0.26-1.17-0.06-1.44,0.48l-2,3.96c-0.26,0.53-0.06,1.17,0.48,1.44
		l0.96,0.49c0.53,0.26,1.17,0.06,1.44-0.48l2-3.96c0.24-0.49,0.08-1.06-0.35-1.37l0.21-0.41l0.15,0.08l0.15-0.3l-0.15-0.08l0.2-0.39
		L44.4,33.58z"/>
	<polygon class="st0" points="27.41,17.15 27.08,18.03 26.7,17.89 23.41,25.04 27.12,26.42 29.32,18.87 28.93,18.73 29.27,17.84 	
		"/>
</g>
</svg>
