<?xml version="1.0" encoding="utf-8"?>
<!-- Generator: Adobe Illustrator 27.1.1, SVG Export Plug-In . SVG Version: 6.00 Build 0)  -->
<svg version="1.1" id="레이어_1" xmlns="http://www.w3.org/2000/svg" xmlns:xlink="http://www.w3.org/1999/xlink" x="0px"
	 y="0px" viewBox="0 0 210 48" style="enable-background:new 0 0 210 48;" xml:space="preserve">
<style type="text/css">
	.st0{fill:#83A666;}
</style>
<g>
	<g>
		<path class="st0" d="M1.46,45.98c-0.99-0.33-1.35-0.69-1.35-1.86c0-0.55-0.11-2.59-0.11-3.54c0-0.69,0.98-0.73,1.86-0.73
			c0.77,0,0.87,0.4,0.91,0.58l0.51,2.55c0.15,0.8,2.62,1.17,4.27,1.17c3.94,0,6.52-1.17,6.52-4.16c0-2.66-1.35-3.64-5.91-5.58
			C2.8,32.17,0.29,31,0.29,27.03c0-4.41,2.66-6.74,8.57-6.74c2.37,0,4.37,0.44,6.2,1.17c1.02,0.4,1.35,0.84,1.28,1.79
			c-0.07,1.13-0.18,2.22-0.4,3.43c-0.07,0.4-0.37,0.47-1.28,0.47c-1.09,0-1.13-0.4-1.13-0.51l-0.18-2.12
			c-0.07-0.95-2.73-1.46-4.74-1.46c-2.95,0-4.99,0.91-4.99,3.46c0,2.44,1.75,3.24,4.74,4.52c6.49,2.77,9.04,4.27,9.04,8.93
			c0,4.52-2.92,7.03-9.88,7.03C4.99,47,2.84,46.46,1.46,45.98z"/>
		<path class="st0" d="M21.22,45.36c0-0.29,0.11-0.44,0.44-0.51c1.71-0.29,2.51-0.66,2.51-1.46V23.93c0-0.95-1.2-1.2-2.51-1.46
			c-0.33-0.07-0.44-0.22-0.44-0.51c0-1.21,0.18-1.39,0.62-1.39h7.66c0.69,0,0.73,0.29,0.73,1.39c0,0.29-0.11,0.44-0.44,0.51
			c-1.31,0.26-2.52,0.47-2.52,1.46v19.47c0,0.95,1.09,1.2,2.52,1.46c0.33,0.07,0.44,0.22,0.44,0.51c0,1.21-0.15,1.39-0.62,1.39
			h-7.69C21.37,46.75,21.22,46.6,21.22,45.36z"/>
		<path class="st0" d="M33.52,45.84c0-0.99,0.11-0.91,0.73-1.06c1.68-0.44,2.04-0.69,2.04-1.46V24c0-0.77-0.33-0.91-2.15-1.46
			c-0.51-0.15-0.62-0.11-0.62-0.91c0-0.98,0.18-1.06,0.69-1.06h10.17c7.44,0,12.58,4.16,12.58,13.09s-5.14,13.09-12.58,13.09H34.24
			C33.66,46.75,33.52,46.53,33.52,45.84z M44.45,43.9c5.61,0,9.33-3.5,9.33-10.24c0-6.78-3.72-10.32-9.33-10.32h-5.07V43.9H44.45z"
			/>
		<path class="st0" d="M60.25,45.33c0-0.33,0.11-0.4,0.44-0.47c1.53-0.4,2.33-0.62,2.33-1.53V24c0-0.84-0.66-1.13-2.33-1.53
			c-0.33-0.07-0.44-0.15-0.44-0.47c0-1.24,0.11-1.42,0.66-1.42h3.9c0.98,0,1.57,0.47,1.82,0.99l9.59,18.74l9.3-18.74
			c0.15-0.33,0.55-0.99,1.53-0.99h3.46c0.55,0,0.69,0.07,0.69,1.42c0,0.33-0.11,0.4-0.44,0.47c-1.71,0.47-2.33,0.62-2.33,1.53v19.32
			c0,0.84,0.47,1.06,2.33,1.53c0.33,0.07,0.44,0.15,0.44,0.47c0,1.13-0.07,1.42-0.62,1.42h-7.11c-0.51,0-0.66-0.15-0.66-1.42
			c0-0.4,0.29-0.4,0.62-0.51c0.98-0.29,1.9-0.58,1.9-1.49V27.86c-0.15,0.51-0.33,1.1-0.66,1.72l-7.44,14.43
			c-0.18,0.37-0.69,0.37-1.24,0.37c-0.62,0-1.24-0.04-1.38-0.37l-7.8-15.24c-0.18-0.36-0.66-1.57-0.77-2.08v16.63
			c0,0.84,0.69,1.13,1.9,1.49c0.33,0.11,0.62,0.11,0.62,0.51c0,0.69-0.04,1.42-0.51,1.42h-7.14C60.36,46.75,60.25,46.57,60.25,45.33
			z"/>
		<path class="st0" d="M94.14,33.63c0-8.5,4.92-13.34,12.21-13.34c7.29,0,12.25,5.18,12.25,13.34c0,8.93-4.96,13.38-12.25,13.38
			C99.06,47,94.14,41.9,94.14,33.63z M115.35,33.34c-0.22-6.74-4.01-10.39-9.4-10.17c-5.32,0.22-8.79,4.05-8.57,10.75
			c0.22,6.78,4.01,10.39,9.33,10.17C112.11,43.87,115.57,40.08,115.35,33.34z"/>
		<path class="st0" d="M122.44,33.63c0-8.5,4.92-13.34,12.21-13.34c7.29,0,12.25,5.18,12.25,13.34c0,8.93-4.96,13.38-12.25,13.38
			C127.36,47,122.44,41.9,122.44,33.63z M143.65,33.34c-0.22-6.74-4.01-10.39-9.4-10.17c-5.32,0.22-8.79,4.05-8.57,10.75
			c0.22,6.78,4.01,10.39,9.33,10.17C140.41,43.87,143.87,40.08,143.65,33.34z"/>
		<path class="st0" d="M150.2,45.33c0-0.33,0.11-0.4,0.44-0.47c1.53-0.4,2.33-0.62,2.33-1.53V24c0-0.84-0.47-1.06-2.33-1.53
			c-0.33-0.07-0.44-0.15-0.44-0.47c0-1.42,0.18-1.42,0.8-1.42h7.66c0.62,0,0.73,0.18,0.73,1.31c0,0.29-0.04,0.47-0.33,0.55
			c-1.57,0.33-2.99,0.4-2.99,1.53v20.01h9.15c1.46-0.07,1.31-0.37,1.79-2.59c0.04-0.18,0.15-0.4,0.66-0.4
			c0.84,0,1.79,0.11,1.75,0.66l-0.22,4.01c-0.04,0.76-0.69,1.09-1.57,1.09h-16.66C150.38,46.75,150.2,46.75,150.2,45.33z"/>
	</g>
	<g>
		<path class="st0" d="M210,27.18c-1.37-0.61-2.68-1.57-4.07-1.7c-1.41-0.13-2.89,0.58-4.3,0.91c0.4-1.28,1.2-2,2.69-2.28
			c2.44-0.45,3.57-1.8,3.6-3.82c0.01-0.61-0.09-1.23-0.15-2.07c-2.67,0.31-4.24,1.93-5.09,3.95c-0.67-1.29-1.43-2.75-2.27-4.36
			c-1.83,2.76-1.89,5.19,0.52,7.44c-2.33,2.21-4.64,4.16-8.08,4.71c0.17-0.62,0.25-1.01,0.37-1.38c1.86-5.48,2.21-11.07,1.14-16.74
			c-0.2-1.03-0.05-1.42,0.93-1.87c1.05-0.47,2.36-1.16,2.76-2.09c0.6-1.37,0.49-3.05,0.69-4.6c-0.13-0.04-0.26-0.09-0.38-0.13
			c-1.67,1.63-3.34,3.27-4.92,4.82c0.4-1.72-0.37-3.22-1.81-4.49c-0.46-0.4-0.75-0.99-1.18-1.43c-0.36-0.37-0.8-0.66-1.28-1.04
			c-0.4,1.33-0.86,2.34-0.98,3.38c-0.1,0.85-0.06,1.95,0.41,2.58c0.67,0.92,1.7,1.67,2.72,2.22c1.26,0.68,1.8,1.7,1.25,3.07
			c-2.69-3.05-3.03-2.68-7.7-2.6c1.27,1.57,1.87,3.54,3.9,4.31c1.54,0.58,2.91,0.22,4.28-0.85c0,1.64,0,3.09,0,4.81
			c-1.39-2.05-3.21-2.47-5.34-2.23c0.72,2.54,2.45,3.78,5.08,3.62c0.19,2.99-1.24,5.38-2.76,7.93c-0.67-4.32-2.04-5.9-5.18-6.19
			c-0.43,3.56-0.1,6.72,4.77,7.24c-2.33,3.17-4.47,6.07-6.6,8.96c-3.96-1.28-8.93-8.32-9.26-12.7c3.55-0.29,5.3-1.96,5.24-5.03
			c-2.68,0.22-5.06,0.83-5.78,4c0.01-0.63,0.22-1.15,0.28-1.69c0.11-0.84,0.31-1.74,0.12-2.52c-0.24-0.98-0.8-1.91-1.31-2.8
			c-0.12-0.21-0.72-0.38-0.92-0.26c-1.52,0.93-1.89,4.31-0.68,5.75c0.98,1.17,1.48,2.64,1.45,4.29c-1.14-2.92-3.39-3.61-6.41-3.39
			c0.18,0.31,0.36,0.58,0.5,0.86c1.16,2.42,2.76,4.15,5.77,3.76c0.19-0.02,0.53,0.16,0.59,0.32c0.53,1.44,1.01,2.91,1.57,4.58
			c-3.14-1.79-5.76-1.24-8.41,1.32c1.58,0.56,2.96,1.23,4.41,1.51c1.86,0.35,3.34-0.59,4.48-2.18c1.68,2.95,3.64,5.4,6.17,7.38
			c0.21,0.16,0.22,0.72,0.17,1.07c-0.2,1.35-0.48,2.69-0.71,4.03c-0.19,1.07,0.22,1.48,1.35,1.46c2.92-0.06,5.84-0.02,8.76-0.03
			c0.39,0,0.79-0.08,1.28-0.14c-0.14-0.5-0.22-0.86-0.33-1.2c-0.83-2.55-1.37-5.16-1.17-7.84c0.16-2.11,0.63-3.85,3-4.93
			c2.45-1.12,4.65-2.89,6.73-4.65c0.99-0.85,1.69-1.02,2.69-0.41C205.22,29.4,207.63,28.79,210,27.18z M190.56,45.26
			c-1.84,0.32-3.43-0.9-3.64-2.75c-0.18-1.58,0.77-3.46,2.56-3.27C186.23,41.48,187.67,44.54,190.56,45.26z"/>
		<path class="st0" d="M179.78,25.29c-0.39,0.18-0.68,0.26-0.91,0.42c-0.75,0.53-1.45,1.11-2.21,1.63c-0.73,0.5-0.73,1.04-0.22,1.67
			c1.6,1.96,3.19,3.93,4.84,5.84c0.18,0.21,0.76,0.27,1.06,0.15c0.53-0.22,1.03-0.57,1.43-0.97c0.2-0.19,0.32-0.7,0.21-0.94
			c-1.14-2.35-2.33-4.68-3.53-7C180.29,25.8,180.01,25.56,179.78,25.29z"/>
		<path class="st0" d="M198.71,10.73c2.35,0.59,4.26,0.23,5.37-2.25c0.31-0.7,0.66-1.39,1.1-2.32c-1.38,0.23-2.71,0.44-4.03,0.67
			c-1.7,0.3-2.5,1.52-2.93,3.03C198.15,10.09,198.47,10.67,198.71,10.73z"/>
		<path class="st0" d="M203.48,31.1c1.31,3.04,2.81,3.78,5.95,3.01c-0.51-0.78-1.02-1.59-1.56-2.38
			C206.86,30.23,204.87,29.94,203.48,31.1z"/>
		<path class="st0" d="M169.51,28.3c-3.45-1.36-3.45-1.36-6.94,0.05C165.74,30.62,167.87,30.58,169.51,28.3z"/>
		<path class="st0" d="M200.45,17.36c0.87-0.17,1.77-0.43,2.54-0.87c0.36-0.2,0.66-0.94,0.58-1.35c-0.09-0.4-0.68-0.71-1.09-1.01
			c-0.21-0.15-0.49-0.21-0.74-0.3c-0.53-0.19-1.17-0.66-1.55-0.49c-0.49,0.21-0.76,0.92-1.05,1.31c0.2,0.8,0.26,1.35,0.48,1.82
			C199.79,16.84,200.23,17.41,200.45,17.36z"/>
		<path class="st0" d="M170.6,39.85c2.22,1.22,4.51,0.5,6.1-1.99C174.52,36.38,171.84,37.53,170.6,39.85z"/>
		<path class="st0" d="M184.06,11.5c-1.78-2.14-2.67-2.32-6.01-1.17C179.45,12.85,181.8,13.27,184.06,11.5z"/>
		<path class="st0" d="M190.98,39.52c3.32,1.54,3.99,0.59,5.49-2.11C193.98,36.49,191.9,37.29,190.98,39.52z"/>
		<path class="st0" d="M178.49,18.1c0.56-0.2,1.09-1.46,1-2.06c-0.1-0.71-0.83-1.6-1-1.55c-0.99,0.29-1.96,0.73-2.8,1.31
			c-0.19,0.13,0,1.35,0.34,1.57C176.76,17.82,177.82,18.33,178.49,18.1z"/>
		<path class="st0" d="M204.23,18.97c2.48-1.49,3.08-2.78,2.54-5.44C204.51,14.26,203.58,16.25,204.23,18.97z"/>
		<path class="st0" d="M195.92,22.44c-0.34,2.66,1.02,4.26,3.29,3.88C199.07,23.57,198.47,22.86,195.92,22.44z"/>
		<path class="st0" d="M197.74,12.39c-0.29,0.04-0.63,0.07-0.83,0.24c-0.59,0.53-1.16,1.1-1.64,1.73c-0.09,0.12,0.19,0.75,0.43,0.85
			c1.26,0.5,2.52,0.02,3.2-1.18c0.32-0.56,0.56-1.17,0.87-1.83C199.04,12.26,198.39,12.3,197.74,12.39z"/>
		<path class="st0" d="M185.55,31.61c0.24,0.06,0.74-0.16,0.83-0.37c0.51-1.23-0.04-2.65-1.23-3.3c-0.53-0.29-1.1-0.53-1.87-0.9
			c0.15,1.01,0.24,1.83,0.4,2.63C183.89,30.69,184.54,31.37,185.55,31.61z"/>
		<path class="st0" d="M200.79,29.02l-0.55,1.09l-0.08-0.04c-0.52-0.26-1.16-0.06-1.42,0.47l-1.98,3.91
			c-0.26,0.52-0.06,1.16,0.47,1.42l0.95,0.48c0.52,0.26,1.16,0.06,1.42-0.47l1.98-3.91c0.24-0.48,0.08-1.05-0.35-1.35l0.21-0.41
			l0.15,0.08l0.15-0.3l-0.15-0.08l0.2-0.39L200.79,29.02z"/>
		<polygon class="st0" points="184.01,12.79 183.68,13.66 183.3,13.52 180.05,20.58 183.72,21.95 185.89,14.49 185.51,14.35 
			185.84,13.47 		"/>
	</g>
</g>
</svg>
